PathFileType	4	(X/Y/Z)	/home/utkubuntu/opensim/opensim_mycode/release_code/bioimitation/imitation_envs/data/02905/02905_PRE/experimental_data/static.trc
DataRate	CameraRate	NumFrames	NumMarkers	Units	OrigDataRate	OrigDataStartFrame	OrigNumFrames
100.000000	100.000000	4	53	mm	100.000000	125	1000
Frame#	Time	C7			CLAV			LANK			LASI			LBHD			LELB			LFHD			LFIN			LFMH			LHEE			LKNE			LKNI			LMED			LMET			LMIF			LPSI			LSHO			LTAD			LTHAP			LTHI			LTIAD			LTIB			LTOE			LTTU			LWRA			LWRB			RANK			RASI			RBAK			RBHD			RELB			RFHD			RFIN			RFMH			RHEE			RKNE			RKNI			RMED			RMET			RMIF			RPSI			RSHO			RTAD			RTHAP			RTHI			RTIAD			RTIB			RTOE			RTTU			RWRA			RWRB			STRN			T10			
		X1	Y1	Z1	X2	Y2	Z2	X3	Y3	Z3	X4	Y4	Z4	X5	Y5	Z5	X6	Y6	Z6	X7	Y7	Z7	X8	Y8	Z8	X9	Y9	Z9	X10	Y10	Z10	X11	Y11	Z11	X12	Y12	Z12	X13	Y13	Z13	X14	Y14	Z14	X15	Y15	Z15	X16	Y16	Z16	X17	Y17	Z17	X18	Y18	Z18	X19	Y19	Z19	X20	Y20	Z20	X21	Y21	Z21	X22	Y22	Z22	X23	Y23	Z23	X24	Y24	Z24	X25	Y25	Z25	X26	Y26	Z26	X27	Y27	Z27	X28	Y28	Z28	X29	Y29	Z29	X30	Y30	Z30	X31	Y31	Z31	X32	Y32	Z32	X33	Y33	Z33	X34	Y34	Z34	X35	Y35	Z35	X36	Y36	Z36	X37	Y37	Z37	X38	Y38	Z38	X39	Y39	Z39	X40	Y40	Z40	X41	Y41	Z41	X42	Y42	Z42	X43	Y43	Z43	X44	Y44	Z44	X45	Y45	Z45	X46	Y46	Z46	X47	Y47	Z47	X48	Y48	Z48	X49	Y49	Z49	X50	Y50	Z50	X51	Y51	Z51	X52	Y52	Z52	X53	Y53	Z53	

126	1.25	778.3920288085938	1444	-277.6679992675778	880.7880249023438	1348.0400390625	-259.1099853515622	723.7540283203125	78.1689987182618	-362.0440063476562	897.7830200195312	945.1710205078126	-356.4970092773435	807.7949829101562	1535.822998046875	-349.5190124511715	726.5440063476562	1101.037963867188	-552.5919799804685	928.4819946289062	1636.197998046875	-315.8420104980465	808.5670166015625	856.1160278320314	-680.0460205078123	862.8599853515625	36.28099822998053	-290.4039916992188	672.1530151367188	39.40000152587898	-333.7380065917969	781.6669921875	469.7109985351563	-381.1839904785155	777.739990234375	458.0000000000001	-265.1140136718749	729.5789794921875	88.13200378417974	-281.7640075683594	833.7020263671875	27.53800010681161	-384.1080017089844	803.8270263671875	73.72599792480476	-329.125	731.030029296875	959.9979858398439	-300.3609924316404	812.8309936523438	1384.035034179688	-431.1090087890622	857.2830200195312	527.8460083007814	-312.553009033203	903.5089721679688	692.9799804687501	-316.1860046386717	807.3610229492188	566.1199951171876	-427.678009033203	776.5280151367188	208.1719970703126	-322.0989990234374	743.218017578125	299.8020019531251	-433.6059875488281	858.9249877929688	40.77799987792976	-335.8739929199219	811.2890014648438	384.0669860839844	-322.9920043945311	835.3920288085938	891.5100097656251	-632.9249877929685	770.64697265625	892.6619873046876	-659.9530029296873	712.9929809570312	74.87599945068362	-101.2900009155273	874.4580078125	958.2670288085938	-111.4260025024412	698.6829833984375	1342.656982421875	-154.8480072021482	793.2860107421875	1522.944946289062	-190.190994262695	677.114990234375	1107.0419921875	-10.80399990081763	911.2249755859375	1621.274047851562	-192.1190032958981	733.85498046875	858.947021484375	165.5939941406252	854.4320068359375	36.20199966430668	-159.2089996337891	653.5650024414062	35.09400177001956	-131.1999969482422	794.1480102539062	475.3389892578125	-91.98500061035146	791.6380004882812	464.8439941406251	-211.5679931640624	715.5040283203125	85.16600036621098	-184.3899993896484	813.9089965820312	26.58099937438966	-65.84500122070312	802.1220092773438	67.39499664306643	-130.1499938964843	721.6530151367188	966.4760131835938	-198.6829986572263	780.1170043945312	1393.733032226562	-95.08300018310516	870.8140258789062	554.281982421875	-137.6900024414061	904.968994140625	720.4149780273438	-117.8190002441405	803.4669799804688	589.1530151367188	-38.73899841308581	786.3820190429688	256.8819885253907	-142.4629974365234	736.60400390625	297.6860046386719	-34.08800125122064	846.8179931640625	39.45199966430667	-113.838996887207	826.1370239257812	395.4349975585938	-143.2129974365234	765.7169799804688	899.4110107421875	115.0459976196291	695.0460205078125	895.8690185546875	126.9260025024416	896.5020141601562	1188.5830078125	-249.9689941406247	689.89697265625	1150.067993164062	-267.7080078124998	
127	1.26	778.4249877929688	1443.9990234375	-277.6650085449215	880.7990112304688	1348.036010742188	-259.1109924316403	723.7589721679688	78.1740036010743	-362.0469970703125	897.7999877929688	945.1649780273439	-356.4930114746091	807.7990112304688	1535.81005859375	-349.514007568359	726.5709838867188	1101.045043945313	-552.6249999999998	928.4660034179688	1636.2080078125	-315.8519897460934	808.6649780273438	856.1619873046876	-680.0930175781248	862.8610229492188	36.28200149536139	-290.406005859375	672.156982421875	39.39699935913093	-333.7489929199219	781.7059936523438	469.7099914550782	-381.1690063476561	777.7340087890625	458.0020141601563	-265.1180114746093	729.5750122070312	88.13300323486334	-281.7749938964844	833.7050170898438	27.53700065612801	-384.1159973144531	803.8300170898438	73.72399902343757	-329.1300048828125	731.0689697265625	959.9940185546876	-300.3559875488279	812.8410034179688	1384.032958984375	-431.1059875488278	857.2780151367188	527.8499755859376	-312.5559997558593	903.5059814453125	692.9760131835939	-316.1719970703123	807.3610229492188	566.1240234375001	-427.678985595703	776.5349731445312	208.1790008544923	-322.1029968261718	743.2169799804688	299.8020019531251	-433.6130065917968	858.9249877929688	40.77799987792976	-335.8819885253906	811.2839965820312	384.0710144042969	-322.9970092773436	835.4819946289062	891.5609741210939	-632.9660034179685	770.7429809570312	892.6909790039064	-660.0009765624998	712.9910278320312	74.87100219726565	-101.2990036010742	874.47802734375	958.2689819335938	-111.4199981689451	698.698974609375	1342.655029296875	-154.8549957275388	793.2990112304688	1522.93896484375	-190.1820068359372	677.1290283203125	1107.046020507812	-10.79199981689429	911.2219848632812	1621.291015625	-192.1280059814449	733.8499755859375	858.9749755859375	165.6399993896486	854.4349975585938	36.20199966430668	-159.2180023193359	653.5709838867188	35.08700180053714	-131.2059936523438	794.1400146484375	475.3460083007812	-91.98400115966787	791.6400146484375	464.8439941406251	-211.574005126953	715.5070190429688	85.16600036621098	-184.39599609375	813.9130249023438	26.58200073242189	-65.85299682617188	802.1270141601562	67.40000152587893	-130.1540069580078	721.6799926757812	966.4609985351562	-198.6889953613279	780.1259765625	1393.732055664062	-95.08000183105437	870.8209838867188	554.2849731445312	-137.6929931640624	904.9580078125	720.4030151367188	-117.8180007934569	803.4619750976562	589.1500244140625	-38.74999999999987	786.3870239257812	256.8869934082032	-142.4660034179687	736.5999755859375	297.68701171875	-34.09000015258783	846.8159790039062	39.45600128173831	-113.8460006713867	826.1370239257812	395.4360046386719	-143.2160034179687	765.6950073242188	899.416015625	115.1090011596682	695.0390014648438	895.8839721679688	126.9639968872072	896.5180053710938	1188.577026367188	-249.9629974365232	689.9249877929688	1150.06298828125	-267.7080078124998	
128	1.27	778.4580078125	1443.996948242188	-277.6610107421872	880.8079833984375	1348.031005859375	-259.1109924316403	723.7579956054688	78.17600250244149	-362.0490112304688	897.81298828125	945.1569824218751	-356.4849853515623	807.802001953125	1535.798950195312	-349.5079956054684	726.5919799804688	1101.046997070313	-552.6450195312498	928.4509887695312	1636.213989257812	-315.8630065917965	808.7550048828125	856.2020263671876	-680.127014160156	862.8590087890625	36.28200149536139	-290.4079895019531	672.1610107421875	39.39400100708015	-333.7539978027344	781.7139892578125	469.7109985351563	-381.1669921874999	777.72998046875	458.0060119628907	-265.1220092773436	729.5679931640625	88.13500213623053	-281.7850036621094	833.7059936523438	27.53800010681161	-384.1220092773438	803.8259887695312	73.72100067138679	-329.1329956054688	731.1010131835938	959.9920043945314	-300.3479919433591	812.8489990234375	1384.027954101562	-431.1029968261716	857.2639770507812	527.8510131835939	-312.5580139160155	903.4990234375	692.9719848632814	-316.157989501953	807.3599853515625	566.1270141601564	-427.6770019531249	776.551025390625	208.1840057373048	-322.1059875488281	743.2169799804688	299.7999877929689	-433.6189880371093	858.9249877929688	40.77799987792976	-335.8909912109375	811.2769775390625	384.0740051269532	-323.0020141601561	835.5689697265625	891.6069946289064	-633.002990722656	770.8280029296875	892.7150268554689	-660.0369873046873	712.989990234375	74.86699676513675	-101.3040008544922	874.4910278320312	958.2680053710938	-111.4140014648435	698.7150268554688	1342.651977539062	-154.8609924316403	793.3179931640625	1522.93603515625	-190.1739959716793	677.1439819335938	1107.052978515625	-10.77600002288794	911.218017578125	1621.306030273438	-192.1349945068356	733.8489990234375	859.0079956054688	165.6929931640627	854.4349975585938	36.20399856567386	-159.2239990234375	653.5770263671875	35.0820007324219	-131.2070007324219	794.1320190429688	475.3519897460938	-91.98100280761709	791.6439819335938	464.8429870605469	-211.5769958496093	715.5050048828125	85.16699981689457	-184.3979949951172	813.9149780273438	26.58200073242189	-65.85700225830078	802.1270141601562	67.40200042724612	-130.156997680664	721.7109985351562	966.448974609375	-198.6950073242185	780.1420288085938	1393.734985351562	-95.07900238037078	870.8200073242188	554.2849731445312	-137.688995361328	904.93798828125	720.3920288085938	-117.8140029907225	803.447021484375	589.14599609375	-38.75199890136706	786.3909912109375	256.8919982910157	-142.4669952392578	736.5969848632812	297.6860046386719	-34.08900070190423	846.8109741210938	39.4570007324219	-113.8539962768555	826.135009765625	395.4339904785157	-143.2160034179687	765.6699829101562	899.4149780273438	115.1829986572268	695.0369873046875	895.9099731445312	127.0090026855471	896.5360107421875	1188.571044921875	-249.9519958496091	689.9509887695312	1150.057006835938	-267.7019958496091	
129	1.28	778.4760131835938	1443.998046875	-277.6510009765622	880.8140258789062	1348.027954101562	-259.1090087890622	723.7529907226562	78.17600250244149	-362.0499877929688	897.823974609375	945.1469726562501	-356.4760131835935	807.802978515625	1535.795043945312	-349.5020141601559	726.60302734375	1101.046020507813	-552.6519775390623	928.4390258789062	1636.218017578125	-315.8720092773434	808.8380126953125	856.2379760742189	-680.1459960937498	862.85302734375	36.28200149536139	-290.4079895019531	672.1599731445312	39.39500045776374	-333.7510070800781	781.6829833984375	469.7149963378907	-381.178009033203	777.7239990234375	458.0100097656251	-265.1199951171874	729.56201171875	88.13999938964849	-281.7900085449219	833.7059936523438	27.54100036621102	-384.1210021972656	803.8170166015625	73.71700286865241	-329.1329956054688	731.1099853515625	960.0000000000001	-300.3399963378904	812.8519897460938	1384.02099609375	-431.096008300781	857.2440185546875	527.8489990234376	-312.5559997558593	903.4940185546875	692.9699707031251	-316.1449890136717	807.3590087890625	566.1300048828126	-427.6690063476561	776.573974609375	208.1880035400391	-322.1080017089843	743.218017578125	299.7999877929689	-433.6210021972656	858.927001953125	40.77799987792976	-335.8980102539062	811.2680053710938	384.0759887695313	-323.0050048828124	835.6500244140625	891.6489868164064	-633.033020019531	770.9010009765625	892.7329711914064	-660.0599975585935	712.9910278320312	74.86699676513675	-101.3040008544922	874.4940185546875	958.2630004882812	-111.4059982299803	698.718994140625	1342.651000976562	-154.8580017089841	793.3389892578125	1522.93798828125	-190.1660003662106	677.155029296875	1107.067016601562	-10.75100040435767	911.2139892578125	1621.316040039062	-192.1369934082028	733.8499755859375	859.0460205078125	165.7519989013674	854.4329833984375	36.2089996337891	-159.2220001220703	653.5800170898438	35.08399963378909	-131.2010040283203	794.1229858398438	475.35400390625	-91.97299957275381	791.6500244140625	464.8429870605469	-211.574005126953	715.5009765625	85.16999816894536	-184.3950042724609	813.9149780273438	26.58399963378908	-65.85600280761719	802.1199951171875	67.40000152587893	-130.1580047607422	721.7319946289062	966.4459838867188	-198.6959991455076	780.1630249023438	1393.740966796875	-95.07499694824187	870.8099975585938	554.281982421875	-137.6770019531249	904.9169921875	720.385009765625	-117.8020019531248	803.427001953125	589.1420288085938	-38.74200057983386	786.3939819335938	256.8940124511719	-142.4649963378906	736.5960083007812	297.68701171875	-34.083999633789	846.802978515625	39.45399856567386	-113.859001159668	826.1279907226562	395.4289855957032	-143.2129974365234	765.6500244140625	899.4149780273438	115.2559967041018	695.041015625	895.9500122070312	127.0630035400393	896.5540161132812	1188.566040039062	-249.9380035400388	689.9639892578125	1150.053955078125	-267.690002441406	
